<svg width="126" height="46" viewBox="0 0 126 46" fill="none" xmlns="http://www.w3.org/2000/svg">
<rect x="0.5" y="0.5" width="125" height="45" rx="11.5" stroke="url(#paint0_linear)"/>
<path d="M23.6635 30H21.3685V17.709H23.6635V30ZM27.9146 22.35C28.0902 22.1743 28.2744 22.0128 28.4671 21.8655C28.6654 21.7125 28.8722 21.585 29.0876 21.483C29.3086 21.3753 29.5437 21.2932 29.7931 21.2365C30.0424 21.1742 30.3144 21.143 30.6091 21.143C31.0851 21.143 31.5072 21.2252 31.8756 21.3895C32.2439 21.5482 32.5499 21.7748 32.7936 22.0695C33.0429 22.3585 33.2299 22.707 33.3546 23.115C33.4849 23.5173 33.5501 23.9622 33.5501 24.4495V30H31.4506V24.4495C31.4506 23.9168 31.3287 23.506 31.0851 23.217C30.8414 22.9223 30.4702 22.775 29.9716 22.775C29.6089 22.775 29.2689 22.8572 28.9516 23.0215C28.6342 23.1858 28.3339 23.4097 28.0506 23.693V30H25.9511V21.279H27.2346C27.5066 21.279 27.6851 21.4065 27.7701 21.6615L27.9146 22.35ZM40.8678 22.979C40.8111 23.0697 40.7516 23.1348 40.6893 23.1745C40.6269 23.2085 40.5476 23.2255 40.4513 23.2255C40.3493 23.2255 40.2388 23.1972 40.1198 23.1405C40.0064 23.0838 39.8733 23.0215 39.7203 22.9535C39.5673 22.8798 39.3916 22.8147 39.1933 22.758C39.0006 22.7013 38.7711 22.673 38.5048 22.673C38.0911 22.673 37.7653 22.7608 37.5273 22.9365C37.2949 23.1122 37.1788 23.3417 37.1788 23.625C37.1788 23.812 37.2383 23.9707 37.3573 24.101C37.4819 24.2257 37.6434 24.3362 37.8418 24.4325C38.0458 24.5288 38.2753 24.6167 38.5303 24.696C38.7853 24.7697 39.0431 24.8518 39.3038 24.9425C39.5701 25.0332 39.8308 25.138 40.0858 25.257C40.3408 25.3703 40.5674 25.5177 40.7658 25.699C40.9698 25.8747 41.1313 26.0872 41.2503 26.3365C41.3749 26.5858 41.4373 26.8862 41.4373 27.2375C41.4373 27.6568 41.3608 28.045 41.2078 28.402C41.0604 28.7533 40.8394 29.0593 40.5448 29.32C40.2501 29.575 39.8846 29.7762 39.4483 29.9235C39.0176 30.0652 38.5189 30.136 37.9523 30.136C37.6519 30.136 37.3573 30.1077 37.0683 30.051C36.7849 30 36.5101 29.9263 36.2438 29.83C35.9831 29.7337 35.7394 29.6203 35.5128 29.49C35.2918 29.3597 35.0963 29.218 34.9263 29.065L35.4108 28.266C35.4731 28.1697 35.5468 28.096 35.6318 28.045C35.7168 27.994 35.8244 27.9685 35.9548 27.9685C36.0851 27.9685 36.2069 28.0053 36.3203 28.079C36.4393 28.1527 36.5753 28.232 36.7283 28.317C36.8813 28.402 37.0598 28.4813 37.2638 28.555C37.4734 28.6287 37.7369 28.6655 38.0543 28.6655C38.3036 28.6655 38.5161 28.6372 38.6918 28.5805C38.8731 28.5182 39.0204 28.4388 39.1338 28.3425C39.2528 28.2462 39.3378 28.1357 39.3888 28.011C39.4454 27.8807 39.4738 27.7475 39.4738 27.6115C39.4738 27.4075 39.4114 27.2403 39.2868 27.11C39.1678 26.9797 39.0063 26.8663 38.8023 26.77C38.6039 26.6737 38.3744 26.5887 38.1138 26.515C37.8588 26.4357 37.5953 26.3507 37.3233 26.26C37.0569 26.1693 36.7934 26.0645 36.5328 25.9455C36.2778 25.8208 36.0483 25.665 35.8443 25.478C35.6459 25.291 35.4844 25.0615 35.3598 24.7895C35.2408 24.5175 35.1813 24.1888 35.1813 23.8035C35.1813 23.4465 35.2521 23.1065 35.3938 22.7835C35.5354 22.4605 35.7423 22.18 36.0143 21.942C36.2919 21.6983 36.6348 21.5057 37.0428 21.364C37.4564 21.2167 37.9324 21.143 38.4708 21.143C39.0714 21.143 39.6183 21.2422 40.1113 21.4405C40.6043 21.6388 41.0151 21.8995 41.3438 22.2225L40.8678 22.979ZM45.9245 30.136C45.1651 30.136 44.5815 29.9235 44.1735 29.4985C43.7711 29.0678 43.57 28.4757 43.57 27.722V22.8515H42.6775C42.5641 22.8515 42.4678 22.8147 42.3885 22.741C42.3091 22.6673 42.2695 22.5568 42.2695 22.4095V21.5765L43.672 21.347L44.114 18.967C44.1423 18.8537 44.1961 18.7658 44.2755 18.7035C44.3548 18.6412 44.4568 18.61 44.5815 18.61H45.6695V21.3555H47.9985V22.8515H45.6695V27.5775C45.6695 27.8495 45.7346 28.062 45.865 28.215C46.001 28.368 46.1851 28.4445 46.4175 28.4445C46.5478 28.4445 46.6555 28.4303 46.7405 28.402C46.8311 28.368 46.9076 28.334 46.97 28.3C47.038 28.266 47.0975 28.2348 47.1485 28.2065C47.1995 28.1725 47.2505 28.1555 47.3015 28.1555C47.3638 28.1555 47.4148 28.1725 47.4545 28.2065C47.4941 28.2348 47.5366 28.2802 47.582 28.3425L48.211 29.3625C47.905 29.6175 47.5536 29.8102 47.157 29.9405C46.7603 30.0708 46.3495 30.136 45.9245 30.136ZM53.9497 26.277C53.3433 26.3053 52.8333 26.3592 52.4197 26.4385C52.006 26.5122 51.6745 26.6085 51.4252 26.7275C51.1758 26.8465 50.9973 26.9853 50.8897 27.144C50.782 27.3027 50.7282 27.4755 50.7282 27.6625C50.7282 28.0308 50.8358 28.2943 51.0512 28.453C51.2722 28.6117 51.5583 28.691 51.9097 28.691C52.3403 28.691 52.7115 28.6145 53.0232 28.4615C53.3405 28.3028 53.6493 28.0648 53.9497 27.7475V26.277ZM49.1387 22.4945C50.1417 21.5765 51.3487 21.1175 52.7597 21.1175C53.2697 21.1175 53.7258 21.2025 54.1282 21.3725C54.5305 21.5368 54.8705 21.7692 55.1482 22.0695C55.4258 22.3642 55.6355 22.7183 55.7772 23.132C55.9245 23.5457 55.9982 23.999 55.9982 24.492V30H55.0462C54.8478 30 54.6948 29.9717 54.5872 29.915C54.4795 29.8527 54.3945 29.7308 54.3322 29.5495L54.1452 28.9205C53.9242 29.1188 53.7088 29.2945 53.4992 29.4475C53.2895 29.5948 53.0713 29.7195 52.8447 29.8215C52.618 29.9235 52.3743 30 52.1137 30.051C51.8587 30.1077 51.5753 30.136 51.2637 30.136C50.8953 30.136 50.5553 30.0878 50.2437 29.9915C49.932 29.8895 49.6628 29.7393 49.4362 29.541C49.2095 29.3427 49.0338 29.0962 48.9092 28.8015C48.7845 28.5068 48.7222 28.164 48.7222 27.773C48.7222 27.552 48.759 27.3338 48.8327 27.1185C48.9063 26.8975 49.0253 26.6878 49.1897 26.4895C49.3597 26.2912 49.5778 26.1042 49.8442 25.9285C50.1105 25.7528 50.4363 25.5998 50.8217 25.4695C51.2127 25.3392 51.666 25.2343 52.1817 25.155C52.6973 25.07 53.2867 25.019 53.9497 25.002V24.492C53.9497 23.9083 53.825 23.4777 53.5757 23.2C53.3263 22.9167 52.9665 22.775 52.4962 22.775C52.1562 22.775 51.8728 22.8147 51.6462 22.894C51.4252 22.9733 51.2297 23.064 51.0597 23.166C50.8897 23.2623 50.7338 23.3502 50.5922 23.4295C50.4562 23.5088 50.3032 23.5485 50.1332 23.5485C49.9858 23.5485 49.8612 23.5117 49.7592 23.438C49.6572 23.3587 49.575 23.268 49.5127 23.166L49.1387 22.4945ZM60.1005 17.369V30H58.001V17.369H60.1005ZM64.3173 17.369V30H62.2178V17.369H64.3173ZM81.2359 17.709V30H80.0629C79.8815 30 79.7285 29.9717 79.6039 29.915C79.4849 29.8527 79.3687 29.7507 79.2554 29.609L72.8379 21.415C72.8719 21.789 72.8889 22.1347 72.8889 22.452V30H70.8744V17.709H72.0729C72.1692 17.709 72.2514 17.7147 72.3194 17.726C72.393 17.7317 72.4554 17.7487 72.5064 17.777C72.563 17.7997 72.6169 17.8365 72.6679 17.8875C72.7189 17.9328 72.7755 17.9952 72.8379 18.0745L79.2809 26.3025C79.2639 26.1042 79.2497 25.9087 79.2384 25.716C79.227 25.5233 79.2214 25.3448 79.2214 25.1805V17.709H81.2359ZM87.2349 21.143C87.8809 21.143 88.4674 21.2478 88.9944 21.4575C89.527 21.6672 89.9804 21.9647 90.3544 22.35C90.734 22.7353 91.0259 23.2057 91.2299 23.761C91.4339 24.3163 91.5359 24.9368 91.5359 25.6225C91.5359 26.3138 91.4339 26.9372 91.2299 27.4925C91.0259 28.0478 90.734 28.521 90.3544 28.912C89.9804 29.303 89.527 29.6033 88.9944 29.813C88.4674 30.0227 87.8809 30.1275 87.2349 30.1275C86.5832 30.1275 85.991 30.0227 85.4584 29.813C84.9257 29.6033 84.4695 29.303 84.0899 28.912C83.7159 28.521 83.424 28.0478 83.2144 27.4925C83.0104 26.9372 82.9084 26.3138 82.9084 25.6225C82.9084 24.9368 83.0104 24.3163 83.2144 23.761C83.424 23.2057 83.7159 22.7353 84.0899 22.35C84.4695 21.9647 84.9257 21.6672 85.4584 21.4575C85.991 21.2478 86.5832 21.143 87.2349 21.143ZM87.2349 28.5125C87.9602 28.5125 88.4957 28.2688 88.8414 27.7815C89.1927 27.2942 89.3684 26.5802 89.3684 25.6395C89.3684 24.6988 89.1927 23.982 88.8414 23.489C88.4957 22.996 87.9602 22.7495 87.2349 22.7495C86.4982 22.7495 85.9514 22.9988 85.5944 23.4975C85.243 23.9905 85.0674 24.7045 85.0674 25.6395C85.0674 26.5745 85.243 27.2885 85.5944 27.7815C85.9514 28.2688 86.4982 28.5125 87.2349 28.5125ZM105.441 21.279L102.67 30H100.987C100.794 30 100.661 29.8753 100.587 29.626L99.0232 24.5855C98.9722 24.4155 98.924 24.2483 98.8787 24.084C98.839 23.914 98.805 23.744 98.7767 23.574C98.7427 23.744 98.703 23.9168 98.6577 24.0925C98.618 24.2625 98.5727 24.4325 98.5217 24.6025L96.9322 29.626C96.8642 29.8753 96.714 30 96.4817 30H94.8667L92.1042 21.279H93.7787C93.9317 21.279 94.062 21.3158 94.1697 21.3895C94.2773 21.4632 94.3482 21.5567 94.3822 21.67L95.6317 26.328C95.694 26.583 95.7478 26.8323 95.7932 27.076C95.8442 27.3197 95.8867 27.5633 95.9207 27.807C95.983 27.5633 96.0482 27.3197 96.1162 27.076C96.1898 26.8323 96.2663 26.583 96.3457 26.328L97.7907 21.653C97.8247 21.5397 97.8898 21.4462 97.9862 21.3725C98.0882 21.2988 98.21 21.262 98.3517 21.262H99.2782C99.4255 21.262 99.5502 21.2988 99.6522 21.3725C99.7598 21.4462 99.8307 21.5397 99.8647 21.653L101.267 26.328C101.341 26.583 101.409 26.8352 101.471 27.0845C101.539 27.3282 101.604 27.5718 101.667 27.8155C101.74 27.3338 101.845 26.838 101.981 26.328L103.265 21.67C103.304 21.5567 103.375 21.4632 103.477 21.3895C103.579 21.3158 103.701 21.279 103.843 21.279H105.441Z" fill="url(#paint1_linear)"/>
<defs>
<linearGradient id="paint0_linear" x1="78.2172" y1="-3.34261" x2="78.2172" y2="45.3826" gradientUnits="userSpaceOnUse">
<stop stop-color="#00C4B8"/>
<stop offset="1" stop-color="#00DA8C"/>
</linearGradient>
<linearGradient id="paint1_linear" x1="73.3864" y1="6.96537" x2="73.3864" y2="36.6242" gradientUnits="userSpaceOnUse">
<stop stop-color="#00C4B8"/>
<stop offset="1" stop-color="#00DA8C"/>
</linearGradient>
</defs>
</svg>
