<svg width="98" height="70" viewBox="0 0 98 70" fill="none" xmlns="http://www.w3.org/2000/svg">
<g clip-path="url(#clip0)">
<path d="M97.9619 3.61091C98.249 1.52332 96.4307 -0.263349 94.3061 0.018757C85.4057 1.22241 63.8342 5.56685 48.7323 20.3868C33.8408 35.0187 37.8604 50.7791 39.5448 55.462C39.8701 56.3648 40.5975 57.0795 41.5162 57.3992C46.2823 59.0542 62.3221 63.0037 77.2135 48.3718C92.3346 33.5518 96.7561 12.375 97.9619 3.61091Z" fill="url(#paint0_linear)"/>
<path d="M78.3043 47.3186C78.4957 47.1117 78.6871 46.9236 78.8785 46.7167C78.9551 46.6227 79.0508 46.5287 79.1273 46.4346C79.3379 46.2089 79.5293 46.0021 79.7207 45.7764C79.7781 45.72 79.8355 45.6447 79.8929 45.5883C80.1418 45.3062 80.3906 45.0241 80.6394 44.742C80.6969 44.6668 80.7543 44.5915 80.8117 44.5351C81.0031 44.3094 81.1754 44.1026 81.3668 43.8769C81.4433 43.7828 81.5199 43.6888 81.5965 43.5948C81.7687 43.3879 81.941 43.181 82.0941 42.9553C82.1707 42.8613 82.2281 42.7861 82.3047 42.692C82.5344 42.3911 82.764 42.109 82.9937 41.8081C83.0129 41.7893 83.0129 41.7705 83.032 41.7517C83.2426 41.4696 83.4531 41.1875 83.6445 40.9053C83.7211 40.8113 83.7785 40.7173 83.8359 40.6232C83.989 40.4164 84.1422 40.1907 84.2953 39.9838C84.3719 39.8898 84.4293 39.7957 84.5058 39.6829C84.6781 39.4384 84.8312 39.1939 85.0035 38.9494C85.0418 38.893 85.0801 38.8178 85.1375 38.7613C85.348 38.4604 85.5394 38.1595 85.7308 37.8586C85.7883 37.7834 85.8265 37.7081 85.884 37.6141C86.0371 37.3884 86.1711 37.1627 86.3242 36.9182C86.3816 36.8242 86.4582 36.7114 86.5156 36.6173C86.6496 36.3916 86.7836 36.166 86.9176 35.9403C86.975 35.8462 87.0324 35.771 87.0707 35.677C87.2429 35.3761 87.4344 35.0563 87.6066 34.7554C87.6258 34.7178 87.6449 34.6802 87.664 34.6614C87.8172 34.3793 87.9703 34.116 88.1234 33.8339C88.1808 33.7398 88.2383 33.6458 88.2765 33.533C88.3914 33.3073 88.5254 33.1004 88.6402 32.8747C88.6976 32.7807 88.7551 32.6678 88.7933 32.5738C88.9273 32.3105 89.0613 32.066 89.1953 31.8027C89.2336 31.7463 89.2527 31.6899 89.291 31.6334C89.4441 31.3325 89.5972 31.0128 89.7504 30.7119C89.7887 30.6367 89.8269 30.5426 89.8652 30.4674C89.9801 30.2417 90.0949 30.016 90.1906 29.7715C90.248 29.6775 90.2863 29.5647 90.3437 29.4706C90.4586 29.2449 90.5543 29.0193 90.65 28.7936C90.6883 28.6995 90.7265 28.6243 90.7648 28.5303C90.8988 28.2294 91.0519 27.9096 91.1859 27.6087C91.2051 27.5711 91.2242 27.5147 91.2433 27.4771C91.3582 27.2138 91.473 26.9505 91.5879 26.6872C91.6261 26.5931 91.6644 26.4991 91.7027 26.3863C91.7984 26.1606 91.875 25.9537 91.9707 25.728C92.009 25.634 92.0473 25.5399 92.0855 25.4271C92.1812 25.1638 92.2961 24.9193 92.3918 24.656C92.4109 24.5996 92.4301 24.562 92.4492 24.5244C92.564 24.2235 92.6789 23.9225 92.7937 23.6216C92.832 23.5276 92.8511 23.4524 92.8894 23.3583C92.966 23.1326 93.0617 22.9258 93.1383 22.7001C93.1765 22.606 93.2148 22.4932 93.2531 22.3992C93.3297 22.1735 93.4062 21.9666 93.4828 21.7409C93.5019 21.6657 93.5402 21.5717 93.5594 21.4964C93.6551 21.1955 93.7699 20.9134 93.8656 20.6125C93.8848 20.5561 93.9039 20.4996 93.923 20.462C93.9996 20.2175 94.0761 19.973 94.1719 19.7474C94.2101 19.6533 94.2293 19.5593 94.2676 19.4653C94.325 19.2584 94.4015 19.0515 94.459 18.8446C94.4781 18.7506 94.5164 18.6566 94.5547 18.5625C94.6312 18.318 94.7078 18.0547 94.7844 17.8102C94.8035 17.7726 94.8035 17.735 94.8226 17.7162C94.8992 17.4341 94.9949 17.152 95.0715 16.8699C95.0906 16.7947 95.1098 16.7006 95.148 16.6254C95.2055 16.4185 95.2629 16.2304 95.3203 16.0236C95.3394 15.9295 95.3777 15.8355 95.3969 15.7603C95.4543 15.5534 95.5117 15.3465 95.5691 15.1396C95.5883 15.0644 95.6074 15.008 95.6265 14.9327C95.7031 14.6694 95.7797 14.4061 95.8371 14.1428C95.8562 14.0864 95.8562 14.03 95.8754 13.9924C95.9328 13.7855 95.9902 13.5598 96.0285 13.353C96.0476 13.2777 96.0668 13.1837 96.0859 13.1085C96.1242 12.9204 96.1816 12.7323 96.2199 12.5631C96.239 12.4878 96.2582 12.4126 96.2773 12.3186C96.3347 12.0929 96.3922 11.8484 96.4496 11.6227C96.4496 11.6039 96.4496 11.5851 96.4687 11.5663C96.5261 11.3218 96.5836 11.0773 96.641 10.8328C96.6601 10.7576 96.6793 10.6823 96.6793 10.6259C96.7176 10.4567 96.7558 10.2686 96.7941 10.0993C96.8133 10.0241 96.8324 9.94887 96.8515 9.87364C96.8898 9.70438 96.9281 9.5163 96.9664 9.34704C96.9855 9.29062 96.9855 9.2342 97.0047 9.17778C97.0429 8.95209 97.1004 8.72641 97.1387 8.50072C97.1578 8.4443 97.1578 8.40669 97.1578 8.35027C97.1961 8.181 97.2344 8.01174 97.2535 7.84247C97.2726 7.76724 97.2726 7.71082 97.2918 7.63559C97.3109 7.48514 97.3492 7.33468 97.3683 7.18423C97.3875 7.1278 97.3875 7.05258 97.4066 6.99615C97.4449 6.78928 97.4832 6.6012 97.5215 6.39433C97.5597 6.18745 97.598 5.99938 97.6172 5.81131C97.6363 5.75489 97.6363 5.69846 97.6363 5.64204C97.6555 5.51039 97.6746 5.35994 97.6937 5.22829C97.7129 5.17186 97.7129 5.11544 97.7129 5.05902C97.732 4.90857 97.7511 4.77692 97.7703 4.64527C97.7703 4.60765 97.7894 4.57004 97.7894 4.51362C97.8086 4.34435 97.8469 4.17509 97.866 4.00583C97.866 3.96821 97.8851 3.9306 97.8851 3.89298C97.9043 3.79895 97.9043 3.70491 97.9234 3.62968C98.0574 2.59529 97.6937 1.61732 97.0047 0.959076L40.3293 56.6657C40.6738 57.0042 41.0758 57.2487 41.5351 57.418C41.5734 57.4368 41.6308 57.4556 41.6883 57.4744C41.7074 57.4744 41.7457 57.4932 41.7648 57.4932C41.8605 57.5308 41.9371 57.5496 42.0328 57.5872C42.0519 57.5872 42.0711 57.606 42.0902 57.606C42.1668 57.6249 42.2433 57.6625 42.339 57.6813C42.3773 57.7001 42.4156 57.7001 42.4539 57.7189C42.5304 57.7377 42.5879 57.7565 42.6644 57.7753C42.7027 57.7941 42.741 57.7941 42.7793 57.8129C42.8558 57.8317 42.9133 57.8505 42.9898 57.8693C43.0281 57.8882 43.0664 57.8881 43.1238 57.907C43.2004 57.9258 43.2769 57.9446 43.3726 57.9822C43.4109 58.001 43.4492 58.001 43.4875 58.0198C43.6023 58.0574 43.7363 58.095 43.8703 58.1138H43.8894C44.0043 58.1515 44.1383 58.1703 44.2722 58.2079C44.3105 58.2267 44.3679 58.2267 44.4062 58.2455C44.5019 58.2643 44.5976 58.2831 44.6933 58.3207C44.7508 58.3395 44.789 58.3395 44.8465 58.3583C44.9422 58.3771 45.0379 58.3959 45.1144 58.4148C45.1718 58.4336 45.2293 58.4336 45.2867 58.4524C45.3824 58.4712 45.4781 58.49 45.5929 58.5088C45.6504 58.5276 45.6886 58.5276 45.7461 58.5464C45.8801 58.5652 46.014 58.6028 46.148 58.6216C46.1672 58.6216 46.1863 58.6216 46.2054 58.6404C46.3586 58.678 46.5308 58.6969 46.684 58.7157C46.7414 58.7157 46.7797 58.7345 46.8371 58.7345C46.9519 58.7533 47.0668 58.7721 47.1816 58.7909C47.239 58.7909 47.2965 58.8097 47.373 58.8097C47.4879 58.8285 47.6027 58.8473 47.6984 58.8661C47.7558 58.8661 47.8324 58.8849 47.8898 58.8849C48.0047 58.9037 48.1195 58.9225 48.2343 58.9225C48.2918 58.9225 48.3492 58.9413 48.4258 58.9413C48.5597 58.9602 48.7129 58.979 48.8468 58.979C48.8851 58.979 48.9234 58.979 48.9617 58.9978C49.1531 59.0166 49.3254 59.0354 49.5168 59.0542C49.5742 59.0542 49.6125 59.0542 49.6699 59.073C49.8039 59.0918 49.957 59.0918 50.091 59.1106C50.1676 59.1106 50.225 59.1106 50.3015 59.1294C50.4355 59.1294 50.5504 59.1482 50.6843 59.1482C50.7609 59.1482 50.8375 59.1482 50.914 59.167C51.048 59.167 51.1629 59.1858 51.2969 59.1858C51.3734 59.1858 51.45 59.1858 51.5074 59.1858C51.6605 59.1858 51.7945 59.1858 51.9476 59.1858C52.0051 59.1858 52.0625 59.1858 52.1199 59.1858C52.3304 59.1858 52.5218 59.1858 52.7324 59.1858C52.7707 59.1858 52.8281 59.1858 52.8664 59.1858C53.0386 59.1858 53.1918 59.1858 53.364 59.167C53.4406 59.167 53.5172 59.167 53.5937 59.167C53.7277 59.167 53.8808 59.1482 54.0148 59.1482C54.0914 59.1482 54.1871 59.1482 54.2636 59.1294C54.3976 59.1294 54.5508 59.1106 54.6847 59.1106C54.7613 59.1106 54.8379 59.0918 54.9336 59.0918C55.0867 59.073 55.2398 59.073 55.3929 59.0542C55.4695 59.0542 55.5269 59.0354 55.6035 59.0354C55.8332 59.0166 56.0437 58.9978 56.2734 58.9602C56.2926 58.9602 56.3308 58.9602 56.35 58.9413C56.5605 58.9225 56.7519 58.8849 56.9625 58.8661C57.039 58.8473 57.1156 58.8473 57.1922 58.8285C57.3453 58.8097 57.4984 58.7909 57.6515 58.7533C57.7472 58.7345 57.8238 58.7157 57.9195 58.7157C58.0726 58.6969 58.2258 58.6592 58.3789 58.6404C58.4746 58.6216 58.5511 58.6028 58.6469 58.584C58.8 58.5464 58.9722 58.5276 59.1254 58.49C59.2019 58.4712 59.2785 58.4524 59.3551 58.4336C59.5656 58.3771 59.7953 58.3395 60.025 58.2831C60.0441 58.2831 60.0633 58.2831 60.0824 58.2643C60.3312 58.2079 60.5609 58.1515 60.8097 58.0762C60.8863 58.0574 60.9629 58.0386 61.0394 58.0198C61.2117 57.9822 61.384 57.9258 61.5371 57.8881C61.6328 57.8693 61.7094 57.8317 61.8051 57.8129C61.9582 57.7565 62.1113 57.7189 62.2836 57.6625C62.3793 57.6249 62.475 57.606 62.5707 57.5684C62.7429 57.512 62.8961 57.4556 63.0683 57.3992C63.164 57.3616 63.2406 57.3428 63.3363 57.3051C63.5469 57.2299 63.7383 57.1547 63.9488 57.0794C63.9871 57.0606 64.0445 57.0418 64.0828 57.023C64.3316 56.929 64.5804 56.835 64.8293 56.7221C64.9058 56.7033 64.9633 56.6657 65.0398 56.6281C65.2312 56.5528 65.4035 56.4776 65.5949 56.4024C65.6906 56.3648 65.7863 56.3272 65.8629 56.2895C66.0351 56.2143 66.1883 56.1391 66.3605 56.0639C66.4562 56.0263 66.5519 55.9698 66.6476 55.9322C66.8199 55.857 66.973 55.7818 67.1453 55.6877C67.241 55.6501 67.3367 55.5937 67.4133 55.5561C67.6047 55.462 67.7961 55.368 67.9875 55.2552C68.0449 55.2175 68.1215 55.1799 68.1789 55.1611C68.4277 55.0295 68.6957 54.879 68.9445 54.7474C69.0019 54.7098 69.0594 54.6721 69.1168 54.6345C69.3082 54.5217 69.5187 54.4088 69.7101 54.296C69.8058 54.2396 69.9015 54.1832 69.9781 54.1267C70.1504 54.0327 70.3226 53.9199 70.4949 53.807C70.5906 53.7506 70.6863 53.6754 70.782 53.6189C70.9543 53.5061 71.1074 53.3933 71.2797 53.2804C71.3754 53.224 71.4711 53.1488 71.5668 53.0923C71.7582 52.9607 71.9304 52.8478 72.1219 52.7162C72.1984 52.6598 72.275 52.6034 72.3515 52.5469C72.6195 52.3589 72.8683 52.1708 73.1363 51.9827C73.1746 51.9451 73.2129 51.9263 73.2512 51.8887C73.4617 51.7194 73.6914 51.5502 73.9019 51.3809C73.9976 51.3057 74.0742 51.2304 74.1699 51.174C74.3422 51.0424 74.5144 50.8919 74.6867 50.7415C74.7824 50.6662 74.8781 50.5722 74.9738 50.497C75.1461 50.3465 75.2992 50.2149 75.4715 50.0644C75.5672 49.9892 75.6629 49.8951 75.7586 49.8011C75.9308 49.6506 76.1031 49.4814 76.2945 49.3121C76.3711 49.2369 76.4668 49.1617 76.5433 49.0864C76.7922 48.8419 77.0601 48.5974 77.309 48.353C77.5769 48.0897 77.864 47.8075 78.132 47.5254C78.132 47.4878 78.2086 47.3938 78.3043 47.3186Z" fill="url(#paint1_linear)"/>
<path d="M82.9744 20.9134C82.4193 21.1015 81.8642 21.2331 81.3283 21.3836C80.7732 21.534 80.2373 21.6845 79.7013 21.8161C79.1654 21.9478 78.6295 22.0042 78.0935 22.0794C77.5576 22.1359 77.0408 22.2863 76.5048 22.512C75.9689 22.7377 75.433 23.001 74.8779 23.3019C75.4713 22.6813 76.0646 22.0606 76.658 21.44L79.5865 18.4309C80.5627 17.4153 81.5771 16.4561 82.5533 15.4594C84.5439 13.4846 86.5728 11.5851 88.6974 9.7608L88.4869 9.34705L86.7451 10.5319L85.8646 11.1337C85.5775 11.3406 85.2904 11.5475 85.0224 11.7732C83.9123 12.6383 82.7447 13.4658 81.6537 14.3685C79.4334 16.1364 77.2705 17.9795 75.1076 19.8038C74.7056 20.1611 74.2845 20.5185 73.8826 20.8946C74.0166 20.4997 74.1314 20.1235 74.1888 19.7286C74.2654 19.202 74.3228 18.6754 74.4759 18.1488C74.6099 17.6222 74.763 17.0768 74.9162 16.5502C75.0693 16.0236 75.2224 15.4782 75.4138 14.9328C75.7392 13.8419 76.1795 12.7511 76.6006 11.6227L76.3517 11.5475C75.5287 12.5631 74.7439 13.6351 74.0548 14.7259C73.6912 15.2713 73.3849 15.8355 73.0404 16.3997C72.7341 16.9639 72.4279 17.5281 72.1599 18.1112C71.8728 18.6754 71.5666 19.2584 71.2795 19.8414C70.9923 20.4244 70.8009 21.0074 70.7435 21.5717C70.7244 21.6845 70.7244 21.7973 70.7052 21.9102C70.6287 23.1138 69.9013 24.4303 68.7912 25.4271L68.772 25.4459C66.858 27.1762 64.9822 28.944 63.0873 30.6931C63.2787 30.1477 63.4127 29.6399 63.5084 29.1321C63.6041 28.6055 63.6232 28.1165 63.5658 27.6463C63.5084 27.1762 63.4318 26.6872 63.4318 26.1982C63.4318 25.7092 63.4509 25.2014 63.4701 24.6748C63.4892 24.167 63.5084 23.6592 63.5658 23.1326C63.6232 22.0983 63.7763 21.0262 63.9103 19.9354H63.6232C63.0107 21.0451 62.4939 22.1735 62.0345 23.3207C61.8048 23.8849 61.6134 24.4679 61.422 25.051C61.2498 25.6152 61.0775 26.1982 60.9435 26.7624C60.7904 27.3454 60.6181 27.9285 60.465 28.5115C60.331 29.0945 60.2927 29.6587 60.3693 30.1665C60.4076 30.3922 60.465 30.6179 60.5224 30.8247C60.8287 31.8779 60.2545 33.3073 59.1252 34.3229C58.1681 35.188 57.2111 36.0719 56.2541 36.937C55.0482 38.0467 53.8806 39.1939 52.7322 40.3787C52.8853 39.9086 53.0002 39.4572 53.0959 39.0246C53.1916 38.498 53.2107 38.0091 53.1533 37.5389C53.0959 37.0687 53.0193 36.5797 53.0193 36.0907C53.0193 35.6017 53.0384 35.094 53.0576 34.5674C53.0767 34.0596 53.0959 33.5518 53.1533 33.0252C53.2107 31.9908 53.3638 30.9188 53.4978 29.828H53.2107C52.5982 30.9376 52.0814 32.066 51.622 33.2132C51.3923 33.7963 51.2009 34.3605 51.0095 34.9435C50.8373 35.5077 50.665 36.0907 50.531 36.6549C50.3779 37.2192 50.2056 37.821 50.0525 38.404C49.9185 38.987 49.8802 39.5512 49.9568 40.059C50.0525 40.5668 50.1865 41.0558 50.4353 41.5072C50.7224 42.015 50.5693 42.7673 50.0334 43.3879C48.6552 45.0053 46.1861 47.9204 44.9611 49.5378C43.315 51.7194 41.7072 53.9575 40.3099 56.346C40.2334 56.4588 40.2716 56.6093 40.3673 56.7033C40.463 56.7785 40.6162 56.7973 40.7119 56.7221C43.0662 55.1235 45.2482 53.3933 47.3728 51.6254C49.5548 49.8011 51.6603 47.9204 53.7084 46.0021C53.7466 45.9645 53.7849 45.9268 53.8232 45.908C54.474 45.2874 55.3353 45.0993 55.9095 45.3814C56.3306 45.5883 56.8091 45.72 57.2877 45.814C57.8045 45.908 58.3787 45.8704 58.972 45.7388C59.5654 45.5883 60.1587 45.419 60.7521 45.2874C61.3263 45.1558 61.9197 44.9865 62.4939 44.836C63.0873 44.648 63.6615 44.4599 64.2548 44.253C65.4224 43.8204 66.5709 43.3127 67.7002 42.7296V42.4475C66.59 42.5604 65.499 42.7108 64.4463 42.7673C63.9103 42.8237 63.3935 42.8237 62.8767 42.8425C62.3599 42.8613 61.8431 42.8801 61.3455 42.8613C60.8287 42.8613 60.3502 42.7861 59.8716 42.7108C59.3931 42.6356 58.8955 42.6544 58.3595 42.7484C57.7853 42.8613 57.192 43.0117 56.5603 43.2186C57.5939 42.1654 58.5892 41.0934 59.5654 39.9838C60.331 39.0999 61.3838 37.915 62.3216 36.8806C63.317 35.771 64.7334 35.1692 65.8052 35.4137C66.3412 35.5453 66.9154 35.5829 67.4131 35.677C67.9298 35.771 68.5041 35.7334 69.0974 35.6017C69.6908 35.4513 70.2841 35.282 70.8775 35.1504C71.4517 35.0187 72.0451 34.8495 72.6193 34.699C73.2127 34.5109 73.7869 34.3229 74.3802 34.116C75.5478 33.6834 76.6963 33.1756 77.8256 32.5926V32.3105C76.7154 32.4233 75.6244 32.5738 74.5716 32.6302C74.0357 32.6866 73.5189 32.6866 73.0021 32.7055C72.4853 32.7243 71.9685 32.7431 71.4709 32.7243C70.9541 32.7243 70.4755 32.649 69.997 32.5738C69.5185 32.4986 69.0209 32.5174 68.4849 32.6114C67.4705 32.8183 66.4177 33.1004 65.1545 33.721C67.0685 31.6711 68.9634 29.6211 70.8966 27.6087L70.9732 27.5335C72.1216 26.2922 73.7103 25.5023 75.0502 25.5776C75.433 25.5964 75.8158 25.5964 76.2177 25.5588C76.792 25.5023 77.3853 25.3143 77.9787 25.051C78.572 24.7689 79.1654 24.4679 79.7396 24.1858C80.3138 23.9225 80.9072 23.6216 81.4814 23.3395C82.0556 23.0198 82.6298 22.7001 83.1849 22.3616C84.3142 21.6845 85.4052 20.9322 86.4388 20.1235L86.3623 19.8602C85.1947 20.1799 84.0845 20.5937 82.9744 20.9134Z" fill="url(#paint2_linear)"/>
<path d="M41.5351 57.4181C45.2484 58.6969 55.7757 61.3864 67.2984 55.6126L44.8082 33.4954C43.6789 32.3858 42.5113 31.3514 41.2863 30.3923C35.5632 41.6201 38.2621 51.8512 39.5636 55.4621C39.889 56.3837 40.6164 57.0983 41.5351 57.4181Z" fill="url(#paint3_linear)"/>
<path d="M3.65607 17.4718C1.68458 17.3402 -0.114636 19.1268 0.000207291 21.064C0.555285 29.151 3.23497 48.6352 16.308 61.4992C29.2279 74.194 44.4639 69.4358 49.0194 67.5927C49.8998 67.2354 50.6272 66.5207 50.9908 65.6556C52.8666 61.1795 57.7092 46.1902 44.7893 33.5143C31.7162 20.6502 11.8865 18.0172 3.65607 17.4718Z" fill="url(#paint4_linear)"/>
<path d="M43.8516 32.5927C43.6794 32.4235 43.5071 32.273 43.3157 32.1225C43.2391 32.0473 43.1434 31.9721 43.0669 31.8969C42.8754 31.7276 42.684 31.5583 42.4735 31.3891C42.4161 31.3326 42.3587 31.295 42.3012 31.2386C42.0524 31.0317 41.8036 30.8249 41.5356 30.618C41.4782 30.5616 41.4016 30.5239 41.3442 30.4675C41.1528 30.3171 40.9422 30.1666 40.7508 29.9973C40.6743 29.9221 40.5786 29.8657 40.4829 29.7905C40.2915 29.64 40.1001 29.5084 39.9086 29.3767C39.8321 29.3203 39.7555 29.2639 39.679 29.2074C39.411 29.0194 39.143 28.8313 38.8751 28.6432C38.8559 28.6244 38.8368 28.6244 38.8176 28.6056C38.5688 28.4364 38.32 28.2671 38.052 28.0978C37.9754 28.0414 37.8797 27.985 37.8032 27.9286C37.6118 27.7969 37.4204 27.6841 37.229 27.5524C37.1333 27.496 37.0567 27.4396 36.961 27.3832C36.7504 27.2515 36.5208 27.1199 36.3102 26.9694C36.2528 26.9318 36.1954 26.8942 36.1379 26.8566C35.87 26.6873 35.5829 26.5368 35.3149 26.3676C35.2383 26.33 35.1618 26.2923 35.1044 26.2359C34.8938 26.1231 34.6833 25.9914 34.4727 25.8786C34.377 25.8222 34.2813 25.7846 34.2047 25.7281C33.9942 25.6153 33.8028 25.5024 33.5922 25.4084C33.5157 25.3708 33.4391 25.3144 33.3434 25.2768C33.0563 25.1263 32.7883 24.9947 32.5012 24.8442C32.4629 24.8254 32.4438 24.8066 32.4055 24.8066C32.1567 24.6749 31.9079 24.5621 31.659 24.4304C31.5633 24.3928 31.4868 24.3364 31.3911 24.2988C31.1805 24.2048 30.9891 24.1107 30.7786 24.0167C30.6829 23.9791 30.5872 23.9415 30.5106 23.885C30.2809 23.7722 30.0512 23.6782 29.8215 23.5653C29.7641 23.5465 29.7067 23.5089 29.6684 23.4901C29.3813 23.3584 29.0942 23.2456 28.8262 23.1328C28.7497 23.0951 28.6731 23.0763 28.5965 23.0387C28.386 22.9447 28.1754 22.8695 27.9649 22.7754C27.8692 22.7378 27.7735 22.7002 27.6778 22.6626C27.4672 22.5873 27.2567 22.4933 27.0461 22.4181C26.9696 22.3805 26.893 22.3617 26.7973 22.324C26.5102 22.2112 26.2231 22.1172 25.9551 22.0043C25.9169 21.9855 25.8786 21.9667 25.8211 21.9667C25.5723 21.8727 25.3426 21.7975 25.0938 21.7034C24.9981 21.6658 24.9215 21.647 24.8258 21.6094C24.6344 21.5342 24.4239 21.4777 24.2325 21.4025C24.1368 21.3649 24.0602 21.3461 23.9645 21.3085C23.7348 21.2332 23.486 21.158 23.2563 21.0828C23.218 21.064 23.1606 21.064 23.1223 21.0452C22.8352 20.9511 22.5672 20.8759 22.2801 20.7819C22.2036 20.7631 22.127 20.7254 22.0504 20.7066C21.8399 20.6502 21.6485 20.5938 21.4379 20.5186C21.3422 20.4998 21.2465 20.4621 21.17 20.4433C20.9594 20.3869 20.768 20.3305 20.5575 20.2741C20.4809 20.2553 20.4043 20.2365 20.3278 20.2177C20.0598 20.1424 19.7918 20.0672 19.5047 19.992C19.4473 19.9732 19.409 19.9732 19.3516 19.9544C19.1219 19.8979 18.9114 19.8415 18.6817 19.7851C18.586 19.7663 18.5094 19.7475 18.4137 19.7287C18.2223 19.6723 18.0309 19.6346 17.8395 19.597C17.7629 19.5782 17.6672 19.5594 17.5907 19.5406C17.361 19.4842 17.1313 19.4278 16.9016 19.3713C16.8633 19.3713 16.8442 19.3525 16.8059 19.3525C16.5379 19.2961 16.2891 19.2397 16.0211 19.1833C15.9446 19.1645 15.868 19.1457 15.7915 19.1268C15.6001 19.0892 15.4086 19.0516 15.2364 19.014C15.1598 18.9952 15.0641 18.9764 14.9876 18.9576C14.7961 18.92 14.6047 18.8824 14.4133 18.8447C14.3559 18.8259 14.2793 18.8259 14.2219 18.8071C13.9731 18.7507 13.7243 18.7131 13.4754 18.6567C13.418 18.6379 13.3797 18.6379 13.3223 18.6379C13.1309 18.6002 12.9204 18.5626 12.729 18.525C12.6524 18.5062 12.5758 18.5062 12.4993 18.4874C12.327 18.4498 12.1547 18.431 11.9825 18.3934C11.9059 18.3746 11.8293 18.3746 11.7719 18.3558C11.5614 18.3181 11.3317 18.2805 11.1211 18.2429C11.102 18.2429 11.0829 18.2429 11.0637 18.2429C10.834 18.2053 10.6043 18.1677 10.3747 18.1301C10.3172 18.1113 10.2407 18.1113 10.1833 18.0925C10.011 18.0736 9.85786 18.0548 9.70474 18.0172C9.62818 17.9984 9.57075 17.9984 9.49419 17.9796C9.32193 17.9608 9.1688 17.942 8.99653 17.9044C8.93911 17.9044 8.88169 17.8856 8.84341 17.8856C8.63286 17.8668 8.42232 17.8292 8.21177 17.8103C8.17349 17.8103 8.11607 17.7915 8.07779 17.7915C7.90552 17.7727 7.75239 17.7539 7.59927 17.7351C7.54185 17.7351 7.46529 17.7163 7.40786 17.7163C7.25474 17.6975 7.12075 17.6787 6.98677 17.6787C6.92935 17.6787 6.87193 17.6599 6.8145 17.6599C6.6231 17.6411 6.43169 17.6223 6.25943 17.6035C6.06802 17.5847 5.89575 17.5659 5.70435 17.547C5.64693 17.547 5.5895 17.5282 5.53208 17.5282C5.3981 17.5094 5.28325 17.5094 5.14927 17.4906C5.09185 17.4906 5.03443 17.4718 4.977 17.4718C4.84302 17.453 4.70904 17.453 4.59419 17.4342C4.55591 17.4342 4.51763 17.4342 4.47935 17.4154C4.30708 17.3966 4.15396 17.3966 4.00083 17.3778C3.96255 17.3778 3.92427 17.3778 3.88599 17.3778C3.79028 17.3778 3.71372 17.359 3.63716 17.359C2.66099 17.3026 1.7231 17.7163 1.03403 18.3746L50.2063 66.69C50.5508 66.3514 50.8188 65.9753 50.9911 65.5427C51.0102 65.5051 51.0294 65.4487 51.0485 65.4111C51.0676 65.3923 51.0676 65.3735 51.0868 65.3358C51.1251 65.2606 51.1633 65.1666 51.1825 65.0725C51.1825 65.0537 51.2016 65.0349 51.2016 65.0349C51.2399 64.9597 51.259 64.8845 51.2973 64.8092C51.3165 64.7716 51.3165 64.734 51.3356 64.7152C51.3547 64.6588 51.393 64.5836 51.4122 64.5271C51.4313 64.4895 51.4504 64.4519 51.4504 64.4143C51.4696 64.3391 51.5079 64.2826 51.527 64.2074C51.5462 64.1698 51.5653 64.1322 51.5653 64.0946C51.5844 64.0194 51.6227 63.9441 51.6418 63.8689C51.661 63.8313 51.661 63.7937 51.6801 63.7561C51.7184 63.6432 51.7567 63.5304 51.795 63.3987V63.3799C51.8333 63.2671 51.8715 63.1542 51.9098 63.0226C51.929 62.985 51.929 62.9473 51.9481 62.9097C51.9672 62.8157 52.0055 62.7405 52.0247 62.6464C52.0438 62.59 52.0629 62.5524 52.0629 62.496C52.0821 62.4207 52.1204 62.3267 52.1395 62.2327C52.1586 62.1763 52.1778 62.1386 52.1778 62.0822C52.1969 61.9882 52.2352 61.8942 52.2544 61.8001C52.2735 61.7437 52.2735 61.7061 52.2926 61.6497C52.3309 61.518 52.3692 61.4052 52.3883 61.2735C52.3883 61.2547 52.3883 61.2359 52.4075 61.2171C52.4458 61.0666 52.484 60.9162 52.5223 60.7657C52.5415 60.7281 52.5415 60.6717 52.5606 60.6341C52.5797 60.5212 52.618 60.4272 52.6372 60.3144C52.6563 60.2579 52.6563 60.2015 52.6754 60.1451C52.6946 60.0511 52.7137 59.9382 52.7329 59.8442C52.752 59.7878 52.752 59.7313 52.7712 59.6561C52.7903 59.5433 52.8094 59.4492 52.8286 59.3364C52.8477 59.28 52.8477 59.2235 52.8669 59.1671C52.886 59.0355 52.9243 58.9038 52.9434 58.7722C52.9434 58.7346 52.9626 58.6969 52.9626 58.6593C53.0008 58.4901 53.02 58.3208 53.0391 58.1515C53.0391 58.1139 53.0583 58.0575 53.0583 58.0199C53.0774 57.8882 53.0965 57.7566 53.1157 57.6249C53.1157 57.5685 53.1348 57.4933 53.1348 57.4369C53.154 57.324 53.1731 57.2112 53.1731 57.0795C53.1731 57.0043 53.1922 56.9479 53.1922 56.8727C53.2114 56.7598 53.2114 56.6282 53.2305 56.5153C53.2305 56.4401 53.2497 56.3837 53.2497 56.3084C53.2688 56.1768 53.2688 56.0452 53.2879 55.8947C53.2879 55.8383 53.2879 55.8007 53.3071 55.7442C53.3262 55.5562 53.3262 55.3681 53.3454 55.18C53.3454 55.1424 53.3454 55.1048 53.3454 55.0672C53.3454 54.9167 53.3645 54.7663 53.3645 54.6158C53.3645 54.5406 53.3645 54.4842 53.3645 54.4089C53.3645 54.2773 53.3645 54.1456 53.3836 54.014C53.3836 53.9388 53.3836 53.8635 53.3836 53.7883C53.3836 53.6567 53.3836 53.525 53.3836 53.4122C53.3836 53.3369 53.3836 53.2617 53.3836 53.1865C53.3836 53.0548 53.3836 52.9044 53.3836 52.7727C53.3836 52.7163 53.3836 52.6411 53.3836 52.5846C53.3836 52.3778 53.3645 52.1709 53.3645 51.964C53.3645 51.9452 53.3645 51.9264 53.3645 51.8888C53.3454 51.7007 53.3454 51.5126 53.3262 51.3434C53.3262 51.2682 53.3071 51.2117 53.3071 51.1365C53.2879 51.0048 53.2879 50.8544 53.2688 50.7227C53.2688 50.6475 53.2497 50.5723 53.2497 50.4783C53.2305 50.3466 53.2114 50.215 53.2114 50.0645C53.1922 49.9893 53.1922 49.914 53.1731 49.82C53.154 49.6695 53.1348 49.5379 53.1157 49.3874C53.0965 49.3122 53.0965 49.237 53.0774 49.1806C53.0391 48.9737 53.02 48.7856 52.9817 48.5787C52.9817 48.5599 52.9817 48.5411 52.9817 48.5223C52.9434 48.3154 52.9051 48.0898 52.8669 47.8641C52.8477 47.7888 52.8477 47.7324 52.8286 47.6572C52.7903 47.5067 52.7711 47.3563 52.7329 47.2058C52.7137 47.1306 52.6946 47.0366 52.6754 46.9613C52.6372 46.8109 52.5989 46.6792 52.5797 46.5288C52.5606 46.4535 52.5415 46.3595 52.5223 46.2843C52.484 46.1338 52.4458 45.9834 52.4075 45.8517C52.3883 45.7765 52.3692 45.7013 52.3501 45.626C52.2926 45.438 52.2352 45.2687 52.1778 45.0806C52.1586 45.043 52.1586 45.0054 52.1395 44.949C52.0629 44.7233 51.9864 44.4976 51.9098 44.2719C51.8907 44.2155 51.8715 44.1403 51.8333 44.0838C51.7758 43.9146 51.7184 43.7641 51.6418 43.5949C51.6036 43.5196 51.5844 43.4256 51.5461 43.3504C51.4887 43.1999 51.4313 43.0495 51.3739 42.9178C51.3356 42.8238 51.2973 42.7485 51.259 42.6545C51.2016 42.504 51.1251 42.3536 51.0676 42.2219C51.0294 42.1467 50.9911 42.0527 50.9528 41.9775C50.8762 41.8082 50.7997 41.6389 50.704 41.4697C50.6848 41.4132 50.6465 41.3568 50.6274 41.3004C50.5126 41.0747 50.3977 40.849 50.2829 40.6233C50.2637 40.5669 50.2254 40.5105 50.1872 40.4729C50.0915 40.3036 49.9958 40.1155 49.9001 39.9463C49.8618 39.8711 49.8044 39.7958 49.7661 39.7018C49.6704 39.5513 49.5938 39.4009 49.4981 39.2504C49.4407 39.1564 49.3833 39.0812 49.345 38.9871C49.2493 38.8367 49.1536 38.6862 49.0579 38.5546C49.0004 38.4793 48.943 38.3853 48.8856 38.3101C48.7708 38.1408 48.6751 37.9904 48.5602 37.8211C48.5219 37.7459 48.4645 37.6894 48.4262 37.6142C48.2731 37.3885 48.1008 37.1628 47.9286 36.9372C47.9094 36.8995 47.8711 36.8619 47.852 36.8243C47.6989 36.6362 47.5649 36.4482 47.4118 36.2601C47.3544 36.1849 47.2969 36.1096 47.2204 36.0344C47.1055 35.884 46.9715 35.7335 46.8567 35.583C46.7801 35.5078 46.7036 35.4138 46.6461 35.3385C46.5313 35.1881 46.3973 35.0564 46.2633 34.906C46.1868 34.8308 46.1102 34.7367 46.0336 34.6615C45.8997 34.511 45.7465 34.3606 45.6126 34.2101C45.536 34.1349 45.4786 34.0597 45.402 34.0032C45.1915 33.7776 44.9809 33.5707 44.7512 33.345C44.5024 33.1005 44.2727 32.8748 44.0239 32.6491C44.0047 32.7432 43.9282 32.6679 43.8516 32.5927Z" fill="url(#paint5_linear)"/>
<path d="M19.0831 30.0726C19.2171 30.5616 19.3128 31.0694 19.4276 31.5584C19.5424 32.0473 19.6381 32.5363 19.7147 33.0253C19.8104 33.5143 19.8296 34.0033 19.8487 34.4735C19.8678 34.9624 19.9827 35.4326 20.1549 35.9028C20.3464 36.373 20.5378 36.8432 20.8057 37.3321C20.2506 36.8243 19.6956 36.3354 19.1596 35.8276L16.4991 33.345C15.5995 32.5175 14.7573 31.6524 13.8768 30.8249C12.135 29.1322 10.4506 27.402 8.86197 25.5589L8.46002 25.7846L9.47448 27.308L9.99127 28.0791C10.1635 28.3235 10.3549 28.568 10.5272 28.8125C11.2737 29.7717 11.9819 30.7873 12.7667 31.7276C14.2979 33.6459 15.9057 35.5078 17.4944 37.3698C17.8006 37.7271 18.126 38.0844 18.4323 38.4229C18.0686 38.3101 17.7049 38.2349 17.3413 38.2161C16.8436 38.1785 16.3651 38.1596 15.8674 38.0656C15.3698 37.9904 14.8721 37.8775 14.3745 37.7647C13.8768 37.6519 13.3792 37.5578 12.8624 37.4074C11.8479 37.1817 10.8335 36.8432 9.79987 36.5422L9.70416 36.7867C10.6229 37.4826 11.5799 38.122 12.5753 38.6862C13.0729 38.9684 13.5897 39.2317 14.0874 39.495C14.6042 39.7394 15.121 39.9839 15.6378 40.1908C16.1546 40.4165 16.6905 40.661 17.2264 40.8867C17.7624 41.1124 18.2983 41.244 18.8342 41.2628C18.9491 41.2628 19.0448 41.2628 19.1405 41.2628C20.2889 41.2628 21.4756 41.8458 22.3561 42.7862L22.3753 42.805C23.8874 44.4412 25.4378 46.0586 26.9881 47.676C26.4905 47.5444 25.9928 47.4504 25.5335 47.3939C25.0358 47.3375 24.5764 47.3563 24.1171 47.4315C23.6577 47.5256 23.1983 47.6196 22.7389 47.6572C22.2604 47.6948 21.7819 47.7137 21.3034 47.7325C20.8249 47.7513 20.3272 47.7701 19.8487 47.7513C18.8725 47.7701 17.8581 47.6948 16.8245 47.6384L16.8053 47.9017C17.8198 48.3907 18.8725 48.8045 19.9253 49.1242C20.4612 49.2934 20.978 49.4251 21.5139 49.5756C22.0499 49.6884 22.5858 49.8012 23.1217 49.8953C23.6577 49.9893 24.1936 50.121 24.7487 50.215C25.2846 50.309 25.8206 50.309 26.3182 50.1962C26.5288 50.1398 26.7585 50.0833 26.969 50.0081C28.0026 49.6508 29.3042 50.1022 30.2038 51.0613C30.9694 51.8888 31.735 52.6975 32.5007 53.525C33.4768 54.5594 34.4913 55.5562 35.5249 56.5154C35.0846 56.4025 34.6635 56.3273 34.2616 56.2709C33.7639 56.2145 33.3046 56.2333 32.8452 56.3085C32.3858 56.4025 31.9264 56.4966 31.4671 56.5342C30.9885 56.5718 30.51 56.5906 30.0315 56.6094C29.553 56.6282 29.0553 56.647 28.5768 56.6282C27.6007 56.647 26.5862 56.5718 25.5526 56.5154L25.5335 56.7787C26.5479 57.2677 27.6007 57.6814 28.6534 58.0011C29.1893 58.1704 29.7061 58.302 30.2421 58.4525C30.778 58.5653 31.3139 58.6782 31.8499 58.7722C32.3858 58.8663 32.9217 58.9979 33.4768 59.0919C34.0128 59.186 34.5487 59.186 35.0464 59.0731C35.544 58.9603 36.0225 58.791 36.4436 58.5465C36.9413 58.2644 37.6495 58.3397 38.2046 58.791C39.6401 59.9383 42.2624 62.007 43.7171 63.0414C45.6885 64.4143 47.6983 65.7308 49.8803 66.8593C49.9952 66.9157 50.1292 66.8781 50.2249 66.784C50.3014 66.69 50.3206 66.5584 50.2632 66.4643C48.9042 64.4143 47.4112 62.5336 45.8608 60.6905C44.2721 58.8098 42.626 57.0044 40.9417 55.2553C40.9034 55.2177 40.8842 55.1989 40.846 55.1613C40.2909 54.597 40.176 53.826 40.4823 53.2805C40.712 52.8856 40.8651 52.4342 40.9799 52.0017C41.0948 51.5127 41.0948 51.0049 41.0182 50.4595C40.9225 49.9141 40.8077 49.3875 40.712 48.8609C40.6354 48.3343 40.5206 47.8077 40.4057 47.2811C40.2717 46.7545 40.1378 46.2279 39.9655 45.7201C39.6401 44.6857 39.219 43.6513 38.7405 42.6545L38.4725 42.6922C38.5108 43.7077 38.5874 44.6857 38.5491 45.6449C38.5682 46.1339 38.5299 46.604 38.5108 47.0742C38.4917 47.5444 38.4725 48.0146 38.4342 48.4847C38.396 48.9549 38.3003 49.4063 38.2046 49.8389C38.1089 50.2902 38.0897 50.7416 38.1471 51.2118C38.2237 51.7384 38.3194 52.265 38.4725 52.8292C37.5346 51.9641 36.5776 51.1177 35.6014 50.2902C34.8167 49.632 33.7639 48.748 32.826 47.977C31.8499 47.1494 31.3522 45.8894 31.6776 44.8738C31.8307 44.3848 31.9073 43.8394 32.0221 43.388C32.137 42.899 32.137 42.3912 32.0604 41.8458C31.9647 41.3004 31.8499 40.7738 31.7542 40.2472C31.6776 39.7206 31.5628 39.194 31.4479 38.6674C31.3139 38.1408 31.1799 37.6142 31.0077 37.1065C30.6823 36.0721 30.2612 35.0377 29.7827 34.0409L29.5147 34.0597C29.553 35.0753 29.6296 36.0533 29.5913 37.0124C29.6104 37.5014 29.5721 37.9716 29.553 38.4418C29.5339 38.9119 29.5147 39.3821 29.4764 39.8523C29.4382 40.3225 29.3424 40.7738 29.2467 41.2064C29.151 41.6578 29.1319 42.1091 29.1893 42.5793C29.3042 43.5009 29.5147 44.4412 30.0315 45.5696C28.2132 43.9522 26.3948 42.3536 24.5956 40.7174L24.519 40.661C23.4089 39.683 22.7772 38.2913 22.9495 37.05C23.0069 36.6927 23.0069 36.3354 23.0069 35.978C22.9878 35.4514 22.8538 34.9248 22.6432 34.3982C22.4135 33.8716 22.1647 33.3638 21.935 32.8372C21.7245 32.3295 21.4756 31.8029 21.246 31.2951C20.978 30.7873 20.7292 30.2983 20.4229 29.8093C19.8487 28.8313 19.2171 27.8722 18.5089 26.9694L18.26 27.0447C18.5471 28.0791 18.8725 29.0758 19.0831 30.0726Z" fill="url(#paint6_linear)"/>
</g>
<defs>
<linearGradient id="paint0_linear" x1="54.4508" y1="14.8071" x2="82.4341" y2="43.2867" gradientUnits="userSpaceOnUse">
<stop stop-color="#7AC943"/>
<stop offset="0.4564" stop-color="#5FC146"/>
<stop offset="1" stop-color="#39B54A"/>
</linearGradient>
<linearGradient id="paint1_linear" x1="81.9064" y1="36.1471" x2="56.2353" y2="21.5005" gradientUnits="userSpaceOnUse">
<stop stop-color="#39B54A" stop-opacity="0"/>
<stop offset="0.1072" stop-color="#2FAB48" stop-opacity="0.1059"/>
<stop offset="0.4553" stop-color="#159043" stop-opacity="0.4549"/>
<stop offset="0.7642" stop-color="#06803F" stop-opacity="0.7647"/>
<stop offset="1" stop-color="#007A3E"/>
</linearGradient>
<linearGradient id="paint2_linear" x1="60.8119" y1="29.4725" x2="67.9114" y2="36.6979" gradientUnits="userSpaceOnUse">
<stop stop-color="#39B54A"/>
<stop offset="0.2394" stop-color="#32AD48"/>
<stop offset="0.6031" stop-color="#1D9844"/>
<stop offset="1" stop-color="#007A3E"/>
</linearGradient>
<linearGradient id="paint3_linear" x1="63.6608" y1="65.8125" x2="35.4175" y2="37.0682" gradientUnits="userSpaceOnUse">
<stop stop-color="#39B54A" stop-opacity="0"/>
<stop offset="0.1072" stop-color="#2FAB48" stop-opacity="0.1059"/>
<stop offset="0.4553" stop-color="#159043" stop-opacity="0.4549"/>
<stop offset="0.7642" stop-color="#06803F" stop-opacity="0.7647"/>
<stop offset="1" stop-color="#007A3E"/>
</linearGradient>
<linearGradient id="paint4_linear" x1="11.3862" y1="56.6394" x2="39.3692" y2="28.1602" gradientUnits="userSpaceOnUse">
<stop stop-color="#7AC943"/>
<stop offset="0.4564" stop-color="#5FC146"/>
<stop offset="1" stop-color="#39B54A"/>
</linearGradient>
<linearGradient id="paint5_linear" x1="33.4873" y1="30.038" x2="20.5393" y2="55.8961" gradientUnits="userSpaceOnUse">
<stop stop-color="#39B54A" stop-opacity="0"/>
<stop offset="0.1072" stop-color="#2FAB48" stop-opacity="0.1059"/>
<stop offset="0.4553" stop-color="#159043" stop-opacity="0.4549"/>
<stop offset="0.7642" stop-color="#06803F" stop-opacity="0.7647"/>
<stop offset="1" stop-color="#007A3E"/>
</linearGradient>
<linearGradient id="paint6_linear" x1="25.7402" y1="49.8279" x2="32.8397" y2="42.6025" gradientUnits="userSpaceOnUse">
<stop stop-color="#39B54A"/>
<stop offset="0.2394" stop-color="#32AD48"/>
<stop offset="0.6031" stop-color="#1D9844"/>
<stop offset="1" stop-color="#007A3E"/>
</linearGradient>
<clipPath id="clip0">
<rect width="98" height="70" fill="white"/>
</clipPath>
</defs>
</svg>
