<svg width="75" height="75" viewBox="0 0 75 75" fill="none" xmlns="http://www.w3.org/2000/svg">
<g clip-path="url(#clip0)">
<path d="M37.5 75C58.2107 75 75 58.2107 75 37.5C75 16.7893 58.2107 0 37.5 0C16.7893 0 -1.52588e-05 16.7893 -1.52588e-05 37.5C-1.52588e-05 58.2107 16.7893 75 37.5 75Z" fill="url(#paint0_linear)"/>
<path d="M63.9036 17.7749C62.6168 16.8296 61.2524 15.9629 59.8226 15.1755C59.0352 13.7457 58.1683 12.3811 57.223 11.0943C51.974 3.94875 44.969 0.0134583 37.4989 0.0134583C30.0287 0.0134583 23.0239 3.94875 17.7748 11.0943C16.8295 12.3811 15.9626 13.7455 15.1752 15.1755C13.7453 15.9629 12.3809 16.8298 11.094 17.7751C3.94858 23.024 0.0132904 30.0289 0.0132904 37.4991C0.0132904 44.9692 3.94858 51.9741 11.0942 57.2232C12.3809 58.1685 13.7453 59.0354 15.1753 59.8227C15.9627 61.2526 16.8296 62.617 17.7749 63.9039C23.024 71.0495 30.0289 74.9848 37.499 74.9848C44.9692 74.9848 51.9742 71.0495 57.2231 63.9039C58.1684 62.6171 59.0353 61.2527 59.8227 59.8227C61.2526 59.0354 62.617 58.1685 63.9037 57.2233C71.0493 51.9742 74.9846 44.9693 74.9846 37.4992C74.9846 30.0291 71.0492 23.024 63.9036 17.7749ZM37.4989 73.2199C35.4402 73.2199 33.2581 70.1533 31.5331 64.9207C33.4884 65.1507 35.4812 65.2699 37.4989 65.2699C39.5165 65.2699 41.5095 65.1508 43.4648 64.9207C41.7396 70.1533 39.5576 73.2199 37.4989 73.2199ZM37.4989 63.5051C35.2684 63.5051 33.0858 63.3541 30.9674 63.0679C29.7918 58.9111 28.9383 53.9213 28.4499 48.4733C31.3742 48.6824 34.408 48.7901 37.4989 48.7901C40.5898 48.7901 43.6236 48.6823 46.5478 48.4733C46.0595 53.9213 45.2059 58.911 44.0303 63.0679C41.9121 63.3541 39.7293 63.5051 37.4989 63.5051ZM37.4989 1.77816C39.5576 1.77816 41.7396 4.84478 43.4648 10.0774C41.5095 9.84743 39.5165 9.72817 37.4989 9.72817C35.4812 9.72817 33.4883 9.84743 31.5331 10.0774C33.2581 4.84478 35.4402 1.77816 37.4989 1.77816ZM37.4989 11.493C39.7293 11.493 41.9121 11.644 44.0303 11.9302C45.2059 16.0871 46.0595 21.0768 46.5478 26.5248C43.6236 26.3157 40.5896 26.208 37.4989 26.208C34.408 26.208 31.3742 26.3158 28.4499 26.5248C28.9383 21.0768 29.7918 16.087 30.9674 11.9302C33.0858 11.644 35.2684 11.493 37.4989 11.493ZM27.9724 37.4991C27.9724 34.3526 28.0858 31.2693 28.3045 28.3048C31.269 28.0861 34.3524 27.9727 37.4989 27.9727C40.6453 27.9727 43.7287 28.0861 46.6933 28.3048C46.912 31.2693 47.0253 34.3527 47.0253 37.4991C47.0253 40.6455 46.912 43.7288 46.6933 46.6933C43.7287 46.912 40.6453 47.0254 37.4989 47.0254C34.3524 47.0254 31.2692 46.912 28.3045 46.6933C28.0858 43.7288 27.9724 40.6455 27.9724 37.4991ZM26.5246 46.548C21.0767 46.0596 16.0868 45.2061 11.9301 44.0305C11.6439 41.9121 11.4928 39.7295 11.4928 37.4991C11.4928 35.2686 11.6439 33.086 11.9301 30.9676C16.0868 29.792 21.0767 28.9385 26.5246 28.4501C26.3155 31.3743 26.2078 34.4082 26.2078 37.4991C26.2077 40.5899 26.3155 43.6238 26.5246 46.548ZM48.4733 28.4501C53.9212 28.9385 58.9109 29.792 63.0678 30.9676C63.354 33.086 63.5051 35.2686 63.5051 37.4991C63.5051 39.7295 63.354 41.9121 63.0678 44.0305C58.9109 45.2061 53.9212 46.0596 48.4733 46.548C48.6824 43.6238 48.7901 40.5899 48.7901 37.4991C48.7901 34.4082 48.6824 31.3743 48.4733 28.4501ZM48.3318 26.6663C47.8671 21.3264 47.0571 16.4023 45.9421 12.2289C50.544 13.044 54.7993 14.5093 58.5143 16.4839C60.4887 20.1989 61.9542 24.4542 62.7692 29.056C58.5958 27.941 53.6717 27.131 48.3318 26.6663ZM26.6659 26.6663C21.3261 27.131 16.402 27.941 12.2286 29.056C13.0436 24.4542 14.509 20.1988 16.4834 16.4839C20.1984 14.5095 24.4537 13.044 29.0555 12.229C27.9408 16.4021 27.1308 21.3263 26.6659 26.6663ZM10.0773 43.4648C4.84461 41.7398 1.778 39.5577 1.778 37.4991C1.778 35.4404 4.84461 33.2583 10.0773 31.5333C9.84726 33.4886 9.72799 35.4814 9.72799 37.4991C9.72799 39.5167 9.84726 41.5096 10.0773 43.4648ZM26.6659 48.332C27.1306 53.6718 27.9406 58.596 29.0556 62.7694C24.4539 61.9544 20.1984 60.4889 16.4836 58.5145C14.5092 54.7995 13.0437 50.5442 12.2287 45.9423C16.402 47.0571 21.3261 47.8671 26.6659 48.332ZM48.3318 48.332C53.6717 47.8673 58.5958 47.0573 62.7692 45.9423C61.9542 50.5441 60.4887 54.7993 58.5143 58.5143C54.7993 60.4889 50.544 61.9542 45.9421 62.7694C47.0571 58.596 47.8671 53.6718 48.3318 48.332ZM64.9205 31.5333C70.1531 33.2585 73.2196 35.4404 73.2196 37.4991C73.2196 39.5577 70.1531 41.7396 64.9205 43.4648C65.1505 41.5096 65.2698 39.5167 65.2698 37.4991C65.2698 35.4814 65.1505 33.4885 64.9205 31.5333ZM72.803 33.5249C71.0764 32.0526 68.3393 30.7289 64.654 29.5964C64.0123 25.5332 62.8762 21.6618 61.2862 18.1161C67.3198 22.0449 71.5159 27.4399 72.803 33.5249ZM56.882 13.7118C53.3362 12.1218 49.4649 10.9858 45.4015 10.344C44.269 6.65875 42.9453 3.92155 41.473 2.19493C47.5581 3.48199 52.9531 7.67817 56.882 13.7118ZM33.5248 2.19478C32.0524 3.9214 30.7287 6.65861 29.5961 10.3439C25.5328 10.9857 21.6615 12.1217 18.1158 13.7117C22.0448 7.67817 27.4396 3.48199 33.5248 2.19478ZM13.7115 18.116C12.1215 21.6617 10.9855 25.533 10.3437 29.5963C6.65844 30.7288 3.92123 32.0524 2.19461 33.5248C3.48182 27.4399 7.678 22.0449 13.7115 18.116ZM2.19461 41.4732C3.92123 42.9455 6.65844 44.2692 10.3437 45.4019C10.9855 49.4651 12.1215 53.3364 13.7115 56.8821C7.678 52.9532 3.48182 47.5583 2.19461 41.4732ZM18.1158 61.2864C21.6615 62.8764 25.5328 64.0124 29.5961 64.6542C30.7287 68.3395 32.0523 71.0767 33.5248 72.8033C27.4396 71.5161 22.0448 67.3199 18.1158 61.2864ZM41.473 72.8033C42.9455 71.0767 44.269 68.3395 45.4015 64.6542C49.4649 64.0124 53.3362 62.8764 56.882 61.2864C52.9531 67.3199 47.5581 71.5161 41.473 72.8033ZM61.2862 56.882C62.8762 53.3363 64.0123 49.4651 64.654 45.4017C68.3393 44.2692 71.0764 42.9455 72.803 41.4732C71.5159 47.5582 67.3198 52.9532 61.2862 56.882Z" fill="url(#paint1_linear)"/>
<path d="M37.501 70.9747C55.9879 70.9747 70.9745 55.9881 70.9745 37.5012C70.9745 19.0143 55.9879 4.02768 37.501 4.02768C19.0141 4.02768 4.02748 19.0143 4.02748 37.5012C4.02748 55.9881 19.0141 70.9747 37.501 70.9747Z" fill="url(#paint2_linear)"/>
<path d="M67.6753 59.7646L35.3936 27.4831C34.4526 26.3213 33.0152 25.5781 31.4038 25.5781C28.5691 25.5781 26.271 27.876 26.271 30.7109C26.271 32.3207 27.013 33.7562 28.173 34.6968C28.3997 34.9769 30.672 37.234 30.7869 37.351V39.314C29.4714 39.5974 28.4849 40.7659 28.4849 42.1662C28.4849 43.1669 28.9892 44.0496 29.7569 44.5753L55.5548 70.3732C60.3232 67.7484 64.4585 64.1171 67.6753 59.7646Z" fill="url(#paint3_linear)"/>
<path d="M33.9956 39.0617L35.4473 40.5133C35.9783 41.0443 36.2766 41.7644 36.2766 42.5153C36.2766 44.079 37.5442 45.3467 39.1079 45.3467C40.7386 45.3467 42.0607 46.6686 42.0607 48.2993C42.0607 50.4197 41.6184 52.5168 40.7617 54.4565L35.535 66.293C34.8195 67.9133 32.6998 68.3094 31.4473 67.0569C29.6219 65.2315 28.5963 62.7556 28.5963 60.174V58.7972C28.5963 55.208 27.1704 51.7656 24.6325 49.2277L24.4778 49.073C22.0892 46.6846 20.7475 43.445 20.7475 40.0672V39.5739C20.7475 37.2308 22.6469 35.3314 24.99 35.3314C28.3676 35.3314 31.6072 36.6733 33.9956 39.0617Z" fill="url(#paint4_linear)"/>
<path d="M39.108 45.3468C37.5443 45.3468 36.2767 44.0791 36.2767 42.5154C36.2767 41.7646 35.9784 41.0444 35.4474 40.5134L33.9956 39.0618C32.7484 37.8146 31.268 36.856 29.6581 36.2216C30.2187 36.7843 30.734 37.2968 30.7871 37.351V39.314C29.4717 39.5974 28.4852 40.7659 28.4852 42.1662C28.4852 43.1669 28.9894 44.0496 29.7571 44.5753L40.4177 55.2359L40.7616 54.4568C41.6181 52.5171 42.0606 50.42 42.0606 48.2996C42.0608 46.6687 40.7387 45.3468 39.108 45.3468Z" fill="url(#paint5_linear)"/>
<path d="M24.6031 2.27845C15.2143 5.71757 7.58443 12.8039 3.42811 21.8214C2.93546 22.8901 2.69164 24.0567 2.69164 25.2333C2.69164 27.4252 3.56237 29.5273 5.11222 31.0771L5.87869 31.8436C9.31325 35.2782 13.9716 37.2077 18.8288 37.2077C19.5544 37.2077 20.1427 36.6195 20.1427 35.8939C20.1427 35.1683 19.5544 34.5801 18.8288 34.5801H14.79C12.9272 34.5801 11.4172 33.0701 11.4172 31.2073C11.4172 29.3445 12.9274 27.8345 14.79 27.8345H17.9446C21.7271 27.8345 25.3546 26.3318 28.0293 23.6573L32.8999 18.7867C33.9605 17.7261 35.399 17.1302 36.8988 17.1302C39.0687 17.1302 41.0472 15.8887 41.9911 13.9351C43.148 11.5407 41.4034 8.76036 38.7441 8.76036H32.4599C30.6122 8.76036 29.1144 7.26257 29.1144 5.41492C29.1144 3.08316 26.7925 1.47654 24.6031 2.27845Z" fill="url(#paint6_linear)"/>
<path d="M38.7432 8.75957H32.4589C30.6113 8.75957 29.1135 7.26177 29.1135 5.41413C29.1135 5.30427 29.1067 5.19677 29.0967 5.0903C16.8457 8.25765 7.31599 18.1878 4.72629 30.6607C4.85011 30.8028 4.97717 30.9424 5.11114 31.0765L5.87761 31.8429C9.31217 35.2775 13.9706 37.2071 18.8278 37.2071C19.5533 37.2071 20.1416 36.6188 20.1416 35.8932C20.1416 35.1676 19.5533 34.5794 18.8278 34.5794H14.7889C12.9261 34.5794 11.4161 33.0693 11.4161 31.2066C11.4161 29.3438 12.9263 27.8338 14.7889 27.8338H17.9435C21.726 27.8338 25.3535 26.3312 28.0282 23.6566L32.8988 18.786C33.9594 17.7254 35.3979 17.1296 36.8978 17.1296C39.0676 17.1296 41.046 15.8881 41.99 13.9344C43.1469 11.5399 41.4025 8.75957 38.7432 8.75957Z" fill="url(#paint7_linear)"/>
<path d="M74.1268 29.4202C73.6088 27.0621 71.5005 25.3942 69.0861 25.3942H63.7997H60.974C56.1712 25.3942 52.2777 29.2877 52.2777 34.0905V35.1486C52.2777 39.3671 55.6975 42.7868 59.9161 42.7868C62.0611 42.7868 63.7997 44.5256 63.7997 46.6706V56.8124C63.7997 59.4552 67.2312 60.508 68.6999 58.3108C71.7521 53.7447 73.8284 48.4705 74.6306 42.7868C74.8733 41.0603 74.9997 39.2942 74.9997 37.5C74.9997 34.7256 74.6983 32.0224 74.1268 29.4202Z" fill="url(#paint8_linear)"/>
<path d="M70.9731 20.5779H59.7716C57.768 20.5779 56.1437 18.9537 56.1437 16.95C56.1437 14.9463 57.768 13.3221 59.7716 13.3221H66.1658C68.0349 15.5353 69.6525 17.9691 70.9731 20.5779Z" fill="url(#paint9_linear)"/>
<path d="M31.4043 45.0847C33.0163 45.0847 34.3231 43.7779 34.3231 42.1658C34.3231 40.5538 33.0163 39.247 31.4043 39.247C29.7923 39.247 28.4855 40.5538 28.4855 42.1658C28.4855 43.7779 29.7923 45.0847 31.4043 45.0847Z" fill="url(#paint10_linear)"/>
<path d="M31.4039 44.6018C32.7492 44.6018 33.8399 43.5112 33.8399 42.1658C33.8399 40.8204 32.7492 39.7298 31.4039 39.7298C30.0585 39.7298 28.9678 40.8204 28.9678 42.1658C28.9678 43.5112 30.0585 44.6018 31.4039 44.6018Z" fill="url(#paint11_linear)"/>
<path d="M32.7099 39.555C32.9069 39.948 33.0177 40.3913 33.0177 40.8608C33.0177 42.4728 31.711 43.7796 30.0989 43.7796C29.6295 43.7796 29.1861 43.6686 28.7932 43.4718C29.2724 44.4283 30.2616 45.0849 31.4042 45.0849C33.0163 45.0849 34.323 43.7781 34.323 42.1661C34.323 41.0233 33.6664 40.0341 32.7099 39.555Z" fill="url(#paint12_linear)"/>
<path d="M31.4038 42.3993C31.063 42.3993 30.7868 42.1231 30.7868 41.7823V34.725H32.0208V41.7823C32.0207 42.1231 31.7445 42.3993 31.4038 42.3993Z" fill="url(#paint13_linear)"/>
<path d="M31.5993 42.3672C31.8443 42.2856 32.0212 42.0547 32.0212 41.7822V34.7249H31.1774V41.7822C31.1774 42.0549 31.3543 42.2856 31.5993 42.3672Z" fill="url(#paint14_linear)"/>
<path d="M30.7868 35.8071L32.0211 37.0413V34.725H30.7868V35.8071Z" fill="url(#paint15_linear)"/>
<path d="M31.4038 35.8435C34.2385 35.8435 36.5366 33.5455 36.5366 30.7107C36.5366 27.8759 34.2385 25.5779 31.4038 25.5779C28.569 25.5779 26.271 27.8759 26.271 30.7107C26.271 33.5455 28.569 35.8435 31.4038 35.8435Z" fill="url(#paint16_linear)"/>
<path d="M31.4043 34.9944C33.7701 34.9944 35.688 33.0765 35.688 30.7107C35.688 28.3449 33.7701 26.427 31.4043 26.427C29.0385 26.427 27.1206 28.3449 27.1206 30.7107C27.1206 33.0765 29.0385 34.9944 31.4043 34.9944Z" fill="url(#paint17_linear)"/>
<path d="M33.6999 26.1192C34.046 26.8101 34.2412 27.5898 34.2412 28.4153C34.2412 31.25 31.9432 33.5481 29.1084 33.5481C28.283 33.5481 27.5032 33.3529 26.8124 33.0067C27.655 34.6887 29.3944 35.8435 31.4038 35.8435C34.2385 35.8435 36.5366 33.5456 36.5366 30.7107C36.5366 28.7014 35.3818 26.962 33.6999 26.1192Z" fill="url(#paint18_linear)"/>
<path d="M54.2759 3.95615C56.805 9.00394 58.2307 14.7006 58.2307 20.731C58.2307 41.4417 41.4415 58.231 20.7307 58.231C14.7003 58.231 9.00368 56.8054 3.95589 54.2761C10.1129 66.5645 22.8207 75.0013 37.501 75.0013C58.2118 75.0013 75.001 58.212 75.001 37.5013C75.001 22.821 66.5641 10.1132 54.2759 3.95615Z" fill="url(#paint19_linear)"/>
</g>
<defs>
<linearGradient id="paint0_linear" x1="19.3404" y1="19.3404" x2="64.7915" y2="64.7915" gradientUnits="userSpaceOnUse">
<stop stop-color="#18CFFC"/>
<stop offset="1" stop-color="#4A98F7"/>
</linearGradient>
<linearGradient id="paint1_linear" x1="43.2303" y1="78.7852" x2="29.737" y2="-18.4124" gradientUnits="userSpaceOnUse">
<stop stop-color="#18CFFC" stop-opacity="0"/>
<stop offset="1" stop-color="#65E1DC"/>
</linearGradient>
<linearGradient id="paint2_linear" x1="45.5973" y1="45.5975" x2="8.23453" y2="8.23474" gradientUnits="userSpaceOnUse">
<stop stop-color="#18CFFC" stop-opacity="0"/>
<stop offset="1" stop-color="#65E1DC"/>
</linearGradient>
<linearGradient id="paint3_linear" x1="52.0991" y1="51.2646" x2="0.730234" y2="30.4526" gradientUnits="userSpaceOnUse">
<stop stop-color="#0469BC" stop-opacity="0"/>
<stop offset="1" stop-color="#0469BC"/>
</linearGradient>
<linearGradient id="paint4_linear" x1="13.6683" y1="39.4525" x2="72.7531" y2="81.3758" gradientUnits="userSpaceOnUse">
<stop stop-color="#92F37F"/>
<stop offset="1" stop-color="#4AB272"/>
</linearGradient>
<linearGradient id="paint5_linear" x1="53.7433" y1="59.1722" x2="20.5765" y2="34.8729" gradientUnits="userSpaceOnUse">
<stop stop-color="#4AB272" stop-opacity="0"/>
<stop offset="1" stop-color="#009245"/>
</linearGradient>
<linearGradient id="paint6_linear" x1="25.72" y1="22.4693" x2="84.8046" y2="64.3924" gradientUnits="userSpaceOnUse">
<stop stop-color="#92F37F"/>
<stop offset="1" stop-color="#4AB272"/>
</linearGradient>
<linearGradient id="paint7_linear" x1="28.3075" y1="25.5504" x2="11.5694" y2="8.81235" gradientUnits="userSpaceOnUse">
<stop stop-color="#92F37F" stop-opacity="0"/>
<stop offset="1" stop-color="#FFEE83"/>
</linearGradient>
<linearGradient id="paint8_linear" x1="57.9724" y1="40.6989" x2="84.45" y2="45.3569" gradientUnits="userSpaceOnUse">
<stop stop-color="#92F37F"/>
<stop offset="1" stop-color="#4AB272"/>
</linearGradient>
<linearGradient id="paint9_linear" x1="62.17" y1="16.8376" x2="88.6478" y2="21.4957" gradientUnits="userSpaceOnUse">
<stop stop-color="#92F37F"/>
<stop offset="1" stop-color="#4AB272"/>
</linearGradient>
<linearGradient id="paint10_linear" x1="30.3122" y1="41.0738" x2="34.0925" y2="44.8542" gradientUnits="userSpaceOnUse">
<stop stop-color="#FF7044"/>
<stop offset="1" stop-color="#F92814"/>
</linearGradient>
<linearGradient id="paint11_linear" x1="31.6946" y1="42.4567" x2="29.0531" y2="39.8152" gradientUnits="userSpaceOnUse">
<stop stop-color="#FF7044" stop-opacity="0"/>
<stop offset="1" stop-color="#FFA425"/>
</linearGradient>
<linearGradient id="paint12_linear" x1="31.5055" y1="43.2846" x2="35.5176" y2="35.8227" gradientUnits="userSpaceOnUse">
<stop stop-color="#F92814" stop-opacity="0"/>
<stop offset="1" stop-color="#C1272D"/>
</linearGradient>
<linearGradient id="paint13_linear" x1="30.8104" y1="38.5621" x2="32.0033" y2="38.5621" gradientUnits="userSpaceOnUse">
<stop stop-color="#F9F7FC"/>
<stop offset="1" stop-color="#F0DDFC"/>
</linearGradient>
<linearGradient id="paint14_linear" x1="30.6605" y1="38.686" x2="32.4612" y2="38.3399" gradientUnits="userSpaceOnUse">
<stop stop-color="white"/>
<stop offset="1" stop-color="#E9EDF5" stop-opacity="0"/>
</linearGradient>
<linearGradient id="paint15_linear" x1="33.1902" y1="37.0522" x2="30.5121" y2="34.3741" gradientUnits="userSpaceOnUse">
<stop stop-color="#F0DDFC" stop-opacity="0"/>
<stop offset="0.2889" stop-color="#C8B7E0" stop-opacity="0.289"/>
<stop offset="0.5915" stop-color="#A595C8" stop-opacity="0.592"/>
<stop offset="0.8395" stop-color="#8F81B8" stop-opacity="0.84"/>
<stop offset="1" stop-color="#8779B3"/>
</linearGradient>
<linearGradient id="paint16_linear" x1="29.4833" y1="28.7903" x2="36.1311" y2="35.4381" gradientUnits="userSpaceOnUse">
<stop stop-color="#FFDA45"/>
<stop offset="1" stop-color="#FFA425"/>
</linearGradient>
<linearGradient id="paint17_linear" x1="31.9156" y1="31.222" x2="27.2706" y2="26.577" gradientUnits="userSpaceOnUse">
<stop stop-color="#FFDA45" stop-opacity="0"/>
<stop offset="1" stop-color="#FCEE21"/>
</linearGradient>
<linearGradient id="paint18_linear" x1="31.5821" y1="32.6778" x2="38.6374" y2="19.5561" gradientUnits="userSpaceOnUse">
<stop stop-color="#FFDA45" stop-opacity="0"/>
<stop offset="1" stop-color="#B53759"/>
</linearGradient>
<linearGradient id="paint19_linear" x1="44.3959" y1="41.4719" x2="95.9415" y2="-54.3956" gradientUnits="userSpaceOnUse">
<stop stop-color="#0469BC" stop-opacity="0"/>
<stop offset="1" stop-color="#0469BC"/>
</linearGradient>
<clipPath id="clip0">
<rect width="75" height="75" fill="white"/>
</clipPath>
</defs>
</svg>
